<svg width="390" height="303" viewBox="0 0 390 303" fill="none" xmlns="http://www.w3.org/2000/svg">
<g clip-path="url(#clip0_308_130)">
<path d="M20.3174 276.803C22.4565 277.555 24.7531 277.743 26.9861 277.35C29.219 276.957 31.313 275.996 33.0664 274.56C37.5317 270.815 38.932 264.647 40.0708 258.935L43.4402 242.038L36.3862 246.891C31.313 250.381 26.1259 253.983 22.6136 259.038C19.1013 264.093 17.569 270.994 20.3902 276.464" fill="#E6E6E6"/>
<path d="M21.4067 298.436C20.5188 291.973 19.6053 285.427 20.2296 278.895C20.7828 273.093 22.5543 267.428 26.1608 262.781C28.0751 260.319 30.4045 258.21 33.0442 256.548C33.7323 256.114 34.3659 257.204 33.6806 257.636C29.1131 260.52 25.5803 264.779 23.5914 269.799C21.3949 275.38 21.0422 281.465 21.4206 287.395C21.6492 290.98 22.1352 294.543 22.6233 298.101C22.6618 298.262 22.6377 298.431 22.556 298.575C22.4742 298.719 22.3408 298.826 22.1827 298.876C22.0215 298.919 21.8496 298.897 21.7044 298.815C21.5592 298.732 21.4524 298.596 21.4071 298.435L21.4067 298.436Z" fill="#F2F2F2"/>
<path d="M27.7973 288.066C28.7146 289.459 29.9756 290.593 31.4588 291.358C32.942 292.123 34.5974 292.494 36.2655 292.434C40.5535 292.231 44.1267 289.242 47.3431 286.403L56.8585 278.009L50.5611 277.708C46.0323 277.491 41.3867 277.288 37.0731 278.685C32.7596 280.082 28.7815 283.439 27.9928 287.9" fill="#E6E6E6"/>
<path d="M18.897 302.151C23.1714 294.595 28.129 286.196 36.9882 283.512C39.4513 282.768 42.0339 282.502 44.5971 282.727C45.4051 282.797 45.2033 284.041 44.397 283.971C40.1004 283.615 35.812 284.749 32.2538 287.181C28.8298 289.51 26.1637 292.747 23.9075 296.18C22.5253 298.283 21.2873 300.476 20.0492 302.665C19.6537 303.364 18.4968 302.859 18.897 302.151Z" fill="#F2F2F2"/>
<path d="M146.194 149.008C145.922 149.139 145.661 149.292 145.414 149.464L120.23 139.628L119.231 133.141L109.236 133.367L109.886 145.023C109.939 145.964 110.296 146.864 110.903 147.585C111.511 148.307 112.336 148.812 113.256 149.026L143.223 155.972C143.589 157.074 144.282 158.038 145.21 158.737C146.138 159.436 147.257 159.836 148.419 159.884C149.58 159.932 150.728 159.626 151.711 159.006C152.693 158.386 153.464 157.481 153.92 156.413C154.375 155.345 154.495 154.163 154.262 153.026C154.029 151.888 153.456 150.848 152.617 150.044C151.778 149.24 150.714 148.71 149.567 148.525C148.419 148.34 147.243 148.509 146.194 149.008Z" fill="#9F616A"/>
<path d="M108.381 295.57L115.066 295.569L118.246 269.808L108.38 269.809L108.381 295.57Z" fill="#9F616A"/>
<path d="M106.676 293.389L119.84 293.388H119.841C122.066 293.388 124.199 294.271 125.773 295.843C127.346 297.415 128.23 299.547 128.23 301.77V302.042L106.676 302.043L106.676 293.389Z" fill="#2F2E41"/>
<path d="M76.2126 295.57L82.8971 295.569L86.0769 269.808L76.2115 269.809L76.2126 295.57Z" fill="#9F616A"/>
<path d="M74.5074 293.389L87.6714 293.388H87.672C89.8969 293.388 92.0306 294.271 93.6039 295.843C95.1771 297.415 96.061 299.547 96.0612 301.77V302.042L74.5078 302.043L74.5074 293.389Z" fill="#2F2E41"/>
<path d="M80.0884 99.1622C78.1847 91.3087 76.5719 82.4507 80.1621 75.2175C82.6532 70.1987 91.8685 68.5086 97.1512 70.3167C102.434 72.1248 106.253 77.0302 107.933 82.3786C109.613 87.727 109.417 93.4904 108.685 99.0504C98.9699 98.8639 89.2544 98.6775 80.0884 99.1622Z" fill="#2F2E41"/>
<path d="M96.4836 99.1601C102.741 99.1601 107.813 94.0921 107.813 87.8405C107.813 81.5888 102.741 76.5208 96.4836 76.5208C90.2266 76.5208 85.1543 81.5888 85.1543 87.8405C85.1543 94.0921 90.2266 99.1601 96.4836 99.1601Z" fill="#9F616A"/>
<path d="M82.6337 85.5087C82.5977 83.6035 82.9453 81.7106 83.6559 79.9423C84.3666 78.174 85.4257 76.5665 86.7703 75.2153C88.115 73.8641 89.7178 72.7967 91.4835 72.0766C93.2492 71.3565 95.1417 70.9984 97.0487 71.0235C98.9556 71.0486 100.838 71.4565 102.584 72.2228C104.33 72.9892 105.904 74.0984 107.213 75.4846C108.521 76.8707 109.538 78.5056 110.202 80.292C110.865 82.0783 111.163 83.9798 111.077 85.8833C101.38 85.9039 91.6825 85.9245 82.6337 85.5087Z" fill="#2F2E41"/>
<path d="M87.0812 140.922L82.3431 148.812C82.3431 148.812 69.3672 173.128 70.1389 193.284L73.0105 218.389L69.8591 224.549L71.9685 235.389L68.051 243.153L75.1327 280.639L75.434 288.769H86.8853L86.2826 280.489L91.1042 243.97L99.2406 204.978L103.459 238.637L101.953 247.068L103.911 254.143L106.624 275.972L106.925 286.511L117.321 287.715L121.239 248.724L123.499 230.12L111.387 147.632L87.0812 140.922Z" fill="#2F2E41"/>
<path d="M85.5784 102.825L78.5245 105.818L74.5627 122.2L82.9043 143.545L79.7859 154.209C89.2255 170.343 100.909 172.687 114.658 162.341C111.748 154.178 112.169 145.784 115.068 137.219C115.068 137.219 122.301 130.49 117.249 121.742L112.429 108.672L106.462 105.691L85.5784 102.825Z" fill="#CBCBCB"/>
<path d="M111.039 111.521L112.641 108.55C112.641 108.55 116.864 109.184 118.589 114.264C120.313 119.343 120.762 139.863 120.762 139.863L111.726 140.32L111.039 111.521Z" fill="#CBCBCB"/>
<path d="M75.6403 181.167C76.407 180.786 77.0806 180.241 77.6138 179.572C78.1471 178.903 78.5269 178.124 78.7266 177.292C78.9263 176.46 78.941 175.595 78.7696 174.757C78.5983 173.918 78.2451 173.128 77.7349 172.441L82.1147 129.655H72.6495L69.1687 171.433C68.0702 172.366 67.3524 173.669 67.1512 175.095C66.9501 176.522 67.2796 177.972 68.0773 179.172C68.875 180.372 70.0855 181.238 71.4794 181.605C72.8733 181.973 74.3538 181.817 75.6403 181.167Z" fill="#9F616A"/>
<path d="M84.2892 110.657L80.9721 105.971C80.9721 105.971 75.1387 102.02 72.1648 111.114C69.1909 120.208 69.6484 137.057 69.6484 137.057L80.9721 141.742L84.2892 110.657Z" fill="#CBCBCB"/>
<path d="M282.044 40.8576H229.702V70.275H282.044V40.8576Z" fill="#F1F1F1"/>
<path d="M390 17.9773H337.658V47.3948H390V17.9773Z" fill="#F1F1F1"/>
<path d="M373.643 94.2448H321.301V123.662H373.643V94.2448Z" fill="#F1F1F1"/>
<path d="M354.015 0H301.672V29.4174H354.015V0Z" fill="#E5E5E5"/>
<path d="M355.65 54.2384H269.504V102.655H355.65V54.2384Z" fill="#0D5934"/>
<path d="M181.543 132.683H271.9V93.8907H273.312V134.094H181.543V132.683Z" fill="#3F3D56"/>
<path d="M272.606 108.163C276.895 108.163 280.371 104.69 280.371 100.405C280.371 96.1198 276.895 92.6462 272.606 92.6462C268.318 92.6462 264.841 96.1198 264.841 100.405C264.841 104.69 268.318 108.163 272.606 108.163Z" fill="#3F3D56"/>
<path d="M203.74 146.583H161.385V147.994H203.74V146.583Z" fill="#0D5934"/>
<path d="M203.74 150.815H161.385V152.226H203.74V150.815Z" fill="#0D5934"/>
<path d="M203.74 155.047H161.385V156.458H203.74V155.047Z" fill="#0D5934"/>
<path d="M173.653 302.891H-8.45477C-8.59937 302.891 -8.73806 302.833 -8.84031 302.731C-8.94256 302.629 -9 302.49 -9 302.346C-9 302.201 -8.94256 302.063 -8.84031 301.961C-8.73806 301.859 -8.59937 301.801 -8.45477 301.801H173.653C173.797 301.801 173.936 301.859 174.038 301.961C174.14 302.063 174.198 302.201 174.198 302.346C174.198 302.49 174.14 302.629 174.038 302.731C173.936 302.833 173.797 302.891 173.653 302.891Z" fill="#CBCBCB"/>
<path d="M160.564 292.869C159.596 293.209 158.556 293.295 157.545 293.117C156.535 292.939 155.587 292.504 154.793 291.854C152.772 290.159 152.138 287.367 151.623 284.781L150.098 277.133L153.291 279.33C155.587 280.91 157.935 282.54 159.524 284.828C161.114 287.116 161.808 290.24 160.531 292.715" fill="#E6E6E6"/>
<path d="M160.291 302.129C160.708 299.783 160.852 297.396 160.72 295.018C160.572 292.898 159.824 290.864 158.561 289.154C157.865 288.258 157.017 287.491 156.056 286.886C155.806 286.728 155.576 287.125 155.825 287.282C157.487 288.331 158.772 289.881 159.496 291.708C160.225 293.758 160.495 295.944 160.285 298.111C160.201 299.415 160.025 300.711 159.847 302.006C159.833 302.065 159.841 302.127 159.871 302.179C159.901 302.232 159.95 302.271 160.007 302.289C160.066 302.304 160.129 302.296 160.182 302.266C160.234 302.236 160.273 302.187 160.29 302.128L160.291 302.129Z" fill="#F2F2F2"/>
</g>
<defs>
<clipPath id="clip0_308_130">
<rect width="399" height="303" fill="white" transform="translate(-9)"/>
</clipPath>
</defs>
</svg>
